HIERARCHY
ROOT Model
{
	OFFSET 0 0 0
	CHANNELS 6 Xposition Yposition Zposition Zrotation Xrotation Yrotation
	JOINT Model1
	{
		OFFSET 0 -2.25479 2.99384
		CHANNELS 3 Zrotation Xrotation Yrotation
		JOINT Model2
		{
			OFFSET 12.111 0 0
			CHANNELS 3 Zrotation Xrotation Yrotation
			JOINT Model3
			{
				OFFSET 11.5502 0 0
				CHANNELS 3 Zrotation Xrotation Yrotation
				JOINT Model4
				{
					OFFSET 11.781 0 0
					CHANNELS 3 Zrotation Xrotation Yrotation
					JOINT Model5
					{
						OFFSET 20.0601 0 0
						CHANNELS 3 Zrotation Xrotation Yrotation
						JOINT Model6
						{
							OFFSET 11.1962 0 0
							CHANNELS 3 Zrotation Xrotation Yrotation
							End Site
							{
								OFFSET 0 0 0
							}
						}
					}
					JOINT Model7
					{
						OFFSET 10.8223 0.417534 3.51114
						CHANNELS 3 Zrotation Xrotation Yrotation
						JOINT Model8
						{
							OFFSET -6.07943 0 0
							CHANNELS 3 Zrotation Xrotation Yrotation
							JOINT Model9
							{
								OFFSET -0.277416 10.39 -0.051239
								CHANNELS 3 Zrotation Xrotation Yrotation
								JOINT Model10
								{
									OFFSET -3.4391 -0.282043 1.86679
									CHANNELS 3 Zrotation Xrotation Yrotation
									JOINT Model11
									{
										OFFSET 13.0269 0 0
										CHANNELS 3 Zrotation Xrotation Yrotation
										JOINT Model12
										{
											OFFSET 10.8866 0 0
											CHANNELS 3 Zrotation Xrotation Yrotation
											JOINT Model13
											{
												OFFSET 16.7317 0 0
												CHANNELS 3 Zrotation Xrotation Yrotation
												JOINT Model14
												{
													OFFSET 11.8292 0 0
													CHANNELS 3 Zrotation Xrotation Yrotation
													JOINT Model15
													{
														OFFSET 4.82751 -3.73566 -0.836517
														CHANNELS 3 Zrotation Xrotation Yrotation
														JOINT Model16
														{
															OFFSET 3.75311 -0.0582886 -0.0186462
															CHANNELS 3 Zrotation Xrotation Yrotation
															JOINT Model17
															{
																OFFSET 2.88688 0.0192337 0.014801
																CHANNELS 3 Zrotation Xrotation Yrotation
																End Site
																{
																	OFFSET 0 0 0
																}
															}
														}
													}
													JOINT Model18
													{
														OFFSET 9.72197 -3.06458 0.23877
														CHANNELS 3 Zrotation Xrotation Yrotation
														JOINT Model19
														{
															OFFSET 4.61131 0 0
															CHANNELS 3 Zrotation Xrotation Yrotation
															JOINT Model20
															{
																OFFSET 2.8969 -7.62939e-006 0
																CHANNELS 3 Zrotation Xrotation Yrotation
																End Site
																{
																	OFFSET 0 0 0
																}
															}
														}
													}
													JOINT Model21
													{
														OFFSET 9.54431 -0.745064 0.588928
														CHANNELS 3 Zrotation Xrotation Yrotation
														JOINT Model22
														{
															OFFSET 5.33978 0 0
															CHANNELS 3 Zrotation Xrotation Yrotation
															JOINT Model23
															{
																OFFSET 3.03619 7.62939e-006 0
																CHANNELS 3 Zrotation Xrotation Yrotation
																End Site
																{
																	OFFSET 0 0 0
																}
															}
														}
													}
													JOINT Model24
													{
														OFFSET 9.47759 1.51286 0.485107
														CHANNELS 3 Zrotation Xrotation Yrotation
														JOINT Model25
														{
															OFFSET 4.96136 7.62939e-006 0
															CHANNELS 3 Zrotation Xrotation Yrotation
															JOINT Model26
															{
																OFFSET 2.51966 0 0
																CHANNELS 3 Zrotation Xrotation Yrotation
																End Site
																{
																	OFFSET 0 0 0
																}
															}
														}
													}
													JOINT Model27
													{
														OFFSET 9.34247 3.34117 -0.239288
														CHANNELS 3 Zrotation Xrotation Yrotation
														JOINT Model28
														{
															OFFSET 3.2826 2.28882e-005 0
															CHANNELS 3 Zrotation Xrotation Yrotation
															JOINT Model29
															{
																OFFSET 2.1292 0 0
																CHANNELS 3 Zrotation Xrotation Yrotation
																End Site
																{
																	OFFSET 0 0 0
																}
															}
														}
													}
												}
											}
										}
									}
								}
							}
						}
					}
					JOINT Model30
					{
						OFFSET 10.8223 0.4179 -3.51108
						CHANNELS 3 Zrotation Xrotation Yrotation
						JOINT Model31
						{
							OFFSET 6.07943 0 0
							CHANNELS 3 Zrotation Xrotation Yrotation
							JOINT Model32
							{
								OFFSET 0.277416 -10.39 0.051239
								CHANNELS 3 Zrotation Xrotation Yrotation
								JOINT Model33
								{
									OFFSET 3.4391 0.282043 -1.86679
									CHANNELS 3 Zrotation Xrotation Yrotation
									JOINT Model34
									{
										OFFSET -13.0269 0 0
										CHANNELS 3 Zrotation Xrotation Yrotation
										JOINT Model35
										{
											OFFSET -10.8866 0 0
											CHANNELS 3 Zrotation Xrotation Yrotation
											JOINT Model36
											{
												OFFSET -16.7317 0 0
												CHANNELS 3 Zrotation Xrotation Yrotation
												JOINT Model37
												{
													OFFSET -11.8292 0 0
													CHANNELS 3 Zrotation Xrotation Yrotation
													JOINT Model38
													{
														OFFSET -4.82751 3.73566 0.836517
														CHANNELS 3 Zrotation Xrotation Yrotation
														JOINT Model39
														{
															OFFSET -3.75311 0.0582886 0.0186462
															CHANNELS 3 Zrotation Xrotation Yrotation
															JOINT Model40
															{
																OFFSET -2.88688 -0.0192337 -0.014801
																CHANNELS 3 Zrotation Xrotation Yrotation
																End Site
																{
																	OFFSET 0 0 0
																}
															}
														}
													}
													JOINT Model41
													{
														OFFSET -9.72197 3.06459 -0.23877
														CHANNELS 3 Zrotation Xrotation Yrotation
														JOINT Model42
														{
															OFFSET -4.6113 0 0
															CHANNELS 3 Zrotation Xrotation Yrotation
															JOINT Model43
															{
																OFFSET -2.8969 0 0
																CHANNELS 3 Zrotation Xrotation Yrotation
																End Site
																{
																	OFFSET 0 0 0
																}
															}
														}
													}
													JOINT Model44
													{
														OFFSET -9.5443 0.745064 -0.588928
														CHANNELS 3 Zrotation Xrotation Yrotation
														JOINT Model45
														{
															OFFSET -5.33978 0 0
															CHANNELS 3 Zrotation Xrotation Yrotation
															JOINT Model46
															{
																OFFSET -3.03619 -1.52588e-005 0
																CHANNELS 3 Zrotation Xrotation Yrotation
																End Site
																{
																	OFFSET 0 0 0
																}
															}
														}
													}
													JOINT Model47
													{
														OFFSET -9.47759 -1.51286 -0.485107
														CHANNELS 3 Zrotation Xrotation Yrotation
														JOINT Model48
														{
															OFFSET -4.96136 -1.52588e-005 0
															CHANNELS 3 Zrotation Xrotation Yrotation
															JOINT Model49
															{
																OFFSET -2.51966 0 0
																CHANNELS 3 Zrotation Xrotation Yrotation
																End Site
																{
																	OFFSET 0 0 0
																}
															}
														}
													}
													JOINT Model50
													{
														OFFSET -9.34246 -3.34118 0.239288
														CHANNELS 3 Zrotation Xrotation Yrotation
														JOINT Model51
														{
															OFFSET -3.2826 -2.28882e-005 0
															CHANNELS 3 Zrotation Xrotation Yrotation
															JOINT Model52
															{
																OFFSET -2.1292 0 0
																CHANNELS 3 Zrotation Xrotation Yrotation
																End Site
																{
																	OFFSET 0 0 0
																}
															}
														}
													}
												}
											}
										}
									}
								}
							}
						}
					}
				}
			}
		}
	}
	JOINT Model53
	{
		OFFSET 4.38026 -2.14632 -1.11517
		CHANNELS 3 Zrotation Xrotation Yrotation
		JOINT Model54
		{
			OFFSET 0 0 4.94998
			CHANNELS 3 Zrotation Xrotation Yrotation
			JOINT Model55
			{
				OFFSET 18.5642 0 0
				CHANNELS 3 Zrotation Xrotation Yrotation
				JOINT Model56
				{
					OFFSET 21.2884 0 0
					CHANNELS 3 Zrotation Xrotation Yrotation
					JOINT Model57
					{
						OFFSET 30.261 0 0
						CHANNELS 3 Zrotation Xrotation Yrotation
						JOINT Model58
						{
							OFFSET 11.7259 0 0
							CHANNELS 3 Zrotation Xrotation Yrotation
							JOINT Model59
							{
								OFFSET 10.682 0 0
								CHANNELS 3 Zrotation Xrotation Yrotation
								End Site
								{
									OFFSET 0 0 0
								}
							}
						}
					}
				}
			}
		}
	}
	JOINT Model60
	{
		OFFSET -4.38026 -2.14632 -1.11517
		CHANNELS 3 Zrotation Xrotation Yrotation
		JOINT Model61
		{
			OFFSET 0 0 -4.94998
			CHANNELS 3 Zrotation Xrotation Yrotation
			JOINT Model62
			{
				OFFSET -18.5642 0 0
				CHANNELS 3 Zrotation Xrotation Yrotation
				JOINT Model63
				{
					OFFSET -21.2884 0 0
					CHANNELS 3 Zrotation Xrotation Yrotation
					JOINT Model64
					{
						OFFSET -30.261 0 0
						CHANNELS 3 Zrotation Xrotation Yrotation
						JOINT Model65
						{
							OFFSET -11.7259 0 0
							CHANNELS 3 Zrotation Xrotation Yrotation
							JOINT Model66
							{
								OFFSET -10.682 0 0
								CHANNELS 3 Zrotation Xrotation Yrotation
								End Site
								{
									OFFSET 0 0 0
								}
							}
						}
					}
				}
			}
		}
	}
}
MOTION
Frames: 4
Frame Time: 0.033333
13.6862 171.513 -753.932 89.8899 -43.2231 92.5842 -180 4.29621e-031 -90 0.137816 -1.50206 -0.648355 0.258735 -3.00601 -1.29376 0.258735 -3.00557 -1.29376 25.1577 -7.81327 8.00683 5.19198 -8.00481 4.15974 120.092 75.5343 58.4939 -23.9274 -16.3674 -4.5647 -167.277 84.4999 48.8109 155.296 14.158 17.2269 -8.86227e-006 41.3332 4.26183e-005 -5.04986 -2.07857 8.89518 -1.2153e-007 -3.22743 -3.71188e-007 7.52685 -0.180441 -2.74263 -72.0648 39.0385 39.3397 33.3638 2.10362 14.835 0.588947 0.308273 6.35287 -99.6409 81.413 100.35 -0.0181409 2.77851e-005 -0.117315 -0.124139 0.00241113 -0.799296 -79.8382 79.5773 80.5374 -0.000225772 -0.000220917 2.22334e-005 -0.00095622 0.000122902 -2.72679e-005 -66.7416 80.4058 67.2171 -0.000437126 1.59517e-005 -2.72819e-005 -0.000136596 -0.000109283 -5.45889e-005 -6.42159 81.2158 8.01779 -0.000218557 1.6913e-005 0.000212178 0.000901597 -0.000184795 -0.000218515 -59.9282 75.5373 58.5147 -19.8959 -10.0113 -1.22049 -167.277 84.4999 48.8109 -170.763 12.4161 28.5657 -1.22423e-005 28.0187 4.00498e-005 -84.9381 12.1164 0.620365 -7.18044e-006 17.6794 3.27383e-006 2.02265 0.118317 6.69486 -72.0648 39.0385 39.3397 33.3638 2.10361 14.835 0.588946 0.308273 6.35287 -99.6409 81.413 100.35 -0.0181409 3.00778e-005 -0.117315 -0.124139 0.00241113 -0.799296 -79.8382 79.5773 80.5374 -0.000260651 -0.000218566 2.35633e-005 -0.000956232 0.000122996 -2.73304e-005 -66.7416 80.4058 67.2171 -0.000437137 1.48808e-005 -2.73276e-005 -0.00013661 -0.000109284 -5.46508e-005 -6.42159 81.2158 8.01779 -0.000218572 1.95776e-005 0.00021229 0.000901575 -0.000191247 -0.000218574 0.000811311 0.56661 89.91 -22.6562 -7.64142 -15.3233 -1.28556e-006 -3.45525 -4.60681e-008 53.9767 -6.83615 -0.00694797 -3.28149e-007 -10.3517 -3.38129e-007 -77.0458 -6.03397 1.44159 -35.4947 4.99439e-007 9.3562e-008 -180 -0.566579 -90.09 -30.0241 -16.5112 -21.712 -5.92594e-006 -15.919 -9.07076e-007 50.4681 17.1031 -0.00651856 6.20499e-007 25.5621 1.60508e-006 -67.9928 12.7524 -7.84995 -35.4947 -1.50552e-007 5.09828e-008 
13.8383 171.515 -754.084 89.8155 -43.4077 92.5178 -180 4.29621e-031 -90 0.129439 -1.50619 -0.690079 0.240828 -3.01426 -1.37747 0.240828 -3.01383 -1.37747 25.7289 -7.85474 8.85413 4.20745 -8.11469 3.53437 120.092 75.5343 58.4939 -23.7869 -16.1398 -4.43248 -167.277 84.4999 48.8109 155.521 13.7232 17.202 -8.18298e-006 40.6402 4.21728e-005 -5.52809 -1.57908 9.48469 -1.1671e-007 -2.48412 -3.70948e-007 7.62782 -0.203774 -3.05602 -72.0648 39.0385 39.3397 33.3638 2.10362 14.835 0.588947 0.308273 6.35287 -99.6409 81.413 100.35 -0.0181409 2.77851e-005 -0.117315 -0.124139 0.00241113 -0.799296 -79.8382 79.5773 80.5374 -0.000225772 -0.000220917 2.22334e-005 -0.00095622 0.000122902 -2.72679e-005 -66.7416 80.4058 67.2171 -0.000437126 1.59517e-005 -2.72819e-005 -0.000136596 -0.000109283 -5.45889e-005 -6.42159 81.2158 8.01779 -0.000218557 1.6913e-005 0.000212178 0.000901597 -0.000184795 -0.000218515 -59.9282 75.5373 58.5147 -20.2378 -9.9622 -1.16405 -167.277 84.4999 48.8109 -170.562 12.3053 28.5434 -1.20624e-005 27.791 3.99656e-005 -84.6175 12.5728 0.621116 -7.22141e-006 18.36 3.28651e-006 2.16671 0.130736 6.90508 -72.0648 39.0385 39.3397 33.3638 2.10361 14.835 0.588946 0.308273 6.35287 -99.6409 81.413 100.35 -0.0181409 3.00778e-005 -0.117315 -0.124139 0.00241113 -0.799296 -79.8382 79.5773 80.5374 -0.000260651 -0.000218566 2.35633e-005 -0.000956232 0.000122996 -2.73304e-005 -66.7416 80.4058 67.2171 -0.000437137 1.48808e-005 -2.73276e-005 -0.00013661 -0.000109284 -5.46508e-005 -6.42159 81.2158 8.01779 -0.000218572 1.95776e-005 0.00021229 0.000901575 -0.000191247 -0.000218574 0.000811311 0.56661 89.91 -22.6368 -7.64011 -15.1477 -1.28563e-006 -3.54117 -4.60723e-008 54.028 -6.88237 -0.00694812 -3.28565e-007 -10.4211 -3.38204e-007 -77.171 -6.00954 1.41899 -35.4947 4.98903e-007 9.5199e-008 -180 -0.566579 -90.09 -30.1191 -16.2255 -21.5798 -5.92011e-006 -15.5638 -9.05493e-007 50.3834 16.9381 -0.00651395 6.28169e-007 25.3146 1.60179e-006 -68.1167 12.4705 -7.68212 -35.4947 -1.49866e-007 5.13109e-008 
13.9598 171.52 -754.225 89.7146 -43.5954 92.4809 -180 4.29621e-031 -90 0.124401 -1.50473 -0.704865 0.230374 -3.0113 -1.40719 0.230374 -3.01086 -1.40719 26.035 -7.94431 9.37692 3.55407 -8.24435 3.17325 120.092 75.5343 58.4939 -23.7929 -16.1048 -4.4117 -167.277 84.4999 48.8109 155.511 13.3856 17.1639 -7.68609e-006 40.124 4.18508e-005 -5.95653 -1.17679 10.1853 -1.1284e-007 -1.88673 -3.708e-007 7.48229 -0.223775 -3.42123 -72.0648 39.0385 39.3397 33.3638 2.10362 14.835 0.588947 0.308273 6.35287 -99.6409 81.413 100.35 -0.0181409 2.77851e-005 -0.117315 -0.124139 0.00241113 -0.799296 -79.8382 79.5773 80.5374 -0.000225772 -0.000220917 2.22334e-005 -0.00095622 0.000122902 -2.72679e-005 -66.7416 80.4058 67.2171 -0.000437126 1.59517e-005 -2.72819e-005 -0.000136596 -0.000109283 -5.45889e-005 -6.42159 81.2158 8.01779 -0.000218557 1.6913e-005 0.000212178 0.000901597 -0.000184795 -0.000218515 -59.9282 75.5373 58.5147 -20.4339 -9.91854 -1.12318 -167.277 84.4999 48.8109 -170.487 12.2864 28.4855 -1.20474e-005 27.772 3.99586e-005 -84.6517 12.6153 0.621254 -7.22529e-006 18.4241 3.28773e-006 2.48853 0.154034 7.0828 -72.0648 39.0385 39.3397 33.3638 2.10361 14.835 0.588946 0.308273 6.35287 -99.6409 81.413 100.35 -0.0181409 3.00778e-005 -0.117315 -0.124139 0.00241113 -0.799296 -79.8382 79.5773 80.5374 -0.000260651 -0.000218566 2.35633e-005 -0.000956232 0.000122996 -2.73304e-005 -66.7416 80.4058 67.2171 -0.000437137 1.48808e-005 -2.73276e-005 -0.00013661 -0.000109284 -5.46508e-005 -6.42159 81.2158 8.01779 -0.000218572 1.95776e-005 0.00021229 0.000901575 -0.000191247 -0.000218574 0.000811311 0.56661 89.91 -22.6697 -7.65282 -15.0582 -1.28569e-006 -3.61465 -4.6076e-008 54.0825 -6.93019 -0.00694795 -3.28996e-007 -10.4929 -3.38283e-007 -77.2621 -5.96373 1.39028 -35.4947 4.98267e-007 9.73614e-008 -180 -0.566579 -90.09 -30.1983 -15.9078 -21.3327 -5.91419e-006 -15.2025 -9.03923e-007 50.279 16.7358 -0.00650816 6.37524e-007 25.0114 1.59781e-006 -68.2309 12.2052 -7.52527 -35.4947 -1.50065e-007 5.28326e-008 
14.0384 171.528 -754.348 89.5769 -43.7618 92.4572 -180 4.29621e-031 -90 0.12212 -1.49778 -0.692444 0.226221 -2.99735 -1.3824 0.226221 -2.99692 -1.3824 25.9252 -8.11176 9.5012 3.46202 -8.40646 3.15453 120.092 75.5343 58.4939 -23.9203 -16.3079 -4.52951 -167.277 84.4999 48.8109 155.204 13.2988 17.2905 -7.58313e-006 40.0161 4.17846e-005 -6.25807 -0.993895 10.7034 -1.11103e-007 -1.61847 -3.70747e-007 7.14315 -0.226257 -3.62375 -72.0648 39.0385 39.3397 33.3638 2.10362 14.835 0.588947 0.308273 6.35287 -99.6409 81.413 100.35 -0.0181409 2.77851e-005 -0.117315 -0.124139 0.00241113 -0.799296 -79.8382 79.5773 80.5374 -0.000225772 -0.000220917 2.22334e-005 -0.00095622 0.000122902 -2.72679e-005 -66.7416 80.4058 67.2171 -0.000437126 1.59517e-005 -2.72819e-005 -0.000136596 -0.000109283 -5.45889e-005 -6.42159 81.2158 8.01779 -0.000218557 1.6913e-005 0.000212178 0.000901597 -0.000184795 -0.000218515 -59.9282 75.5373 58.5147 -20.4672 -9.90795 -1.11452 -167.277 84.4999 48.8109 -170.533 12.3598 28.3867 -1.21982e-005 27.9629 4.00291e-005 -85.047 12.2557 0.620777 -7.19306e-006 17.8897 3.27769e-006 2.89697 0.184809 7.29878 -72.0648 39.0385 39.3397 33.3638 2.10361 14.835 0.588946 0.308273 6.35287 -99.6409 81.413 100.35 -0.0181409 3.00778e-005 -0.117315 -0.124139 0.00241113 -0.799296 -79.8382 79.5773 80.5374 -0.000260651 -0.000218566 2.35633e-005 -0.000956232 0.000122996 -2.73304e-005 -66.7416 80.4058 67.2171 -0.000437137 1.48808e-005 -2.73276e-005 -0.00013661 -0.000109284 -5.46508e-005 -6.42159 81.2158 8.01779 -0.000218572 1.95776e-005 0.00021229 0.000901575 -0.000191247 -0.000218574 0.000811311 0.56661 89.91 -22.7618 -7.64921 -15.0243 -1.28572e-006 -3.64732 -4.60776e-008 54.1317 -7.00009 -0.00694777 -3.29626e-007 -10.5978 -3.38398e-007 -77.3047 -5.9225 1.36821 -35.4947 4.97536e-007 1.00036e-007 -180 -0.566579 -90.09 -30.2707 -15.5588 -20.9755 -5.90822e-006 -14.8367 -9.02376e-007 50.1627 16.4901 -0.00650101 6.48827e-007 24.6429 1.59307e-006 -68.3445 11.9622 -7.38132 -35.4947 -1.51133e-007 5.55245e-008 
